<svg width="24" height="24" viewBox="0 0 24 24" fill="none" xmlns="http://www.w3.org/2000/svg">
<g clip-path="url(#clip0_297_3133)">
<mask id="path-1-inside-1_297_3133" fill="white">
<path d="M13.5601 5.625C14.1899 6.25489 15.0443 6.60876 15.9351 6.60876C16.8259 6.60876 17.6802 6.25489 18.3101 5.625C18.9399 4.99511 19.2938 4.1408 19.2938 3.25C19.2938 2.3592 18.9399 1.50489 18.3101 0.875L15.9351 3.25L13.5601 5.625Z"/>
</mask>
<path d="M13.5601 5.625C14.1899 6.25489 15.0443 6.60876 15.9351 6.60876C16.8259 6.60876 17.6802 6.25489 18.3101 5.625C18.9399 4.99511 19.2938 4.1408 19.2938 3.25C19.2938 2.3592 18.9399 1.50489 18.3101 0.875L15.9351 3.25L13.5601 5.625Z" fill="#006DFF" stroke="#006DFF" stroke-width="2" mask="url(#path-1-inside-1_297_3133)"/>
<mask id="path-2-inside-2_297_3133" fill="white">
<path d="M12 19.875C12.9395 20.8145 14.1364 21.4542 15.4395 21.7134C16.7425 21.9726 18.0932 21.8396 19.3207 21.3312C20.5481 20.8227 21.5973 19.9617 22.3354 18.8571C23.0735 17.7524 23.4675 16.4536 23.4675 15.125C23.4675 13.7964 23.0735 12.4976 22.3354 11.3929C21.5973 10.2883 20.5481 9.42726 19.3207 8.91883C18.0932 8.41039 16.7425 8.27736 15.4395 8.53656C14.1364 8.79576 12.9395 9.43554 12 10.375L14.375 12.75C14.8447 12.2803 15.4432 11.9604 16.0947 11.8308C16.7463 11.7012 17.4216 11.7677 18.0353 12.0219C18.6491 12.2761 19.1736 12.7066 19.5427 13.259C19.9118 13.8113 20.1088 14.4607 20.1088 15.125C20.1088 15.7893 19.9118 16.4387 19.5427 16.991C19.1736 17.5434 18.6491 17.9739 18.0353 18.2281C17.4216 18.4823 16.7463 18.5488 16.0947 18.4192C15.4432 18.2896 14.8447 17.9697 14.375 17.5L12 19.875Z"/>
</mask>
<path d="M12 19.875C12.9395 20.8145 14.1364 21.4542 15.4395 21.7134C16.7425 21.9726 18.0932 21.8396 19.3207 21.3312C20.5481 20.8227 21.5973 19.9617 22.3354 18.8571C23.0735 17.7524 23.4675 16.4536 23.4675 15.125C23.4675 13.7964 23.0735 12.4976 22.3354 11.3929C21.5973 10.2883 20.5481 9.42726 19.3207 8.91883C18.0932 8.41039 16.7425 8.27736 15.4395 8.53656C14.1364 8.79576 12.9395 9.43554 12 10.375L14.375 12.75C14.8447 12.2803 15.4432 11.9604 16.0947 11.8308C16.7463 11.7012 17.4216 11.7677 18.0353 12.0219C18.6491 12.2761 19.1736 12.7066 19.5427 13.259C19.9118 13.8113 20.1088 14.4607 20.1088 15.125C20.1088 15.7893 19.9118 16.4387 19.5427 16.991C19.1736 17.5434 18.6491 17.9739 18.0353 18.2281C17.4216 18.4823 16.7463 18.5488 16.0947 18.4192C15.4432 18.2896 14.8447 17.9697 14.375 17.5L12 19.875Z" fill="#006DFF" stroke="#006DFF" stroke-width="2" mask="url(#path-2-inside-2_297_3133)"/>
<mask id="path-3-inside-3_297_3133" fill="white">
<path d="M12 5.625C11.0605 4.68554 9.86359 4.04576 8.56052 3.78656C7.25745 3.52736 5.90678 3.66039 4.67932 4.16883C3.45185 4.67726 2.40272 5.53826 1.66459 6.64295C0.926461 7.74764 0.532486 9.0464 0.532486 10.375C0.532486 11.7036 0.926461 13.0024 1.66459 14.1071C2.40272 15.2117 3.45185 16.0727 4.67932 16.5812C5.90678 17.0896 7.25745 17.2226 8.56052 16.9634C9.86359 16.7042 11.0605 16.0645 12 15.125L9.625 12.75C9.15527 13.2197 8.5568 13.5396 7.90526 13.6692C7.25373 13.7988 6.57839 13.7323 5.96466 13.4781C5.35093 13.2239 4.82636 12.7934 4.4573 12.241C4.08823 11.6887 3.89124 11.0393 3.89124 10.375C3.89124 9.7107 4.08823 9.06132 4.4573 8.50897C4.82636 7.95663 5.35093 7.52613 5.96466 7.27191C6.57839 7.0177 7.25373 6.95118 7.90526 7.08078C8.5568 7.21038 9.15527 7.53027 9.625 8L12 5.625Z"/>
</mask>
<path d="M12 5.625C11.0605 4.68554 9.86359 4.04576 8.56052 3.78656C7.25745 3.52736 5.90678 3.66039 4.67932 4.16883C3.45185 4.67726 2.40272 5.53826 1.66459 6.64295C0.926461 7.74764 0.532486 9.0464 0.532486 10.375C0.532486 11.7036 0.926461 13.0024 1.66459 14.1071C2.40272 15.2117 3.45185 16.0727 4.67932 16.5812C5.90678 17.0896 7.25745 17.2226 8.56052 16.9634C9.86359 16.7042 11.0605 16.0645 12 15.125L9.625 12.75C9.15527 13.2197 8.5568 13.5396 7.90526 13.6692C7.25373 13.7988 6.57839 13.7323 5.96466 13.4781C5.35093 13.2239 4.82636 12.7934 4.4573 12.241C4.08823 11.6887 3.89124 11.0393 3.89124 10.375C3.89124 9.7107 4.08823 9.06132 4.4573 8.50897C4.82636 7.95663 5.35093 7.52613 5.96466 7.27191C6.57839 7.0177 7.25373 6.95118 7.90526 7.08078C8.5568 7.21038 9.15527 7.53027 9.625 8L12 5.625Z" fill="#006DFF" stroke="#006DFF" stroke-width="2" mask="url(#path-3-inside-3_297_3133)"/>
<mask id="path-4-inside-4_297_3133" fill="white">
<path d="M13.5601 5.625C14.1899 6.25489 15.0443 6.60876 15.9351 6.60876C16.8259 6.60876 17.6802 6.25489 18.3101 5.625C18.9399 4.99511 19.2938 4.1408 19.2938 3.25C19.2938 2.3592 18.9399 1.50489 18.3101 0.875L15.9351 3.25L13.5601 5.625Z"/>
</mask>
<path d="M13.5601 5.625C14.1899 6.25489 15.0443 6.60876 15.9351 6.60876C16.8259 6.60876 17.6802 6.25489 18.3101 5.625C18.9399 4.99511 19.2938 4.1408 19.2938 3.25C19.2938 2.3592 18.9399 1.50489 18.3101 0.875L15.9351 3.25L13.5601 5.625Z" fill="#006DFF" stroke="#006DFF" stroke-width="2" mask="url(#path-4-inside-4_297_3133)"/>
<mask id="path-5-inside-5_297_3133" fill="white">
<path d="M12 19.875C12.9395 20.8145 14.1364 21.4542 15.4395 21.7134C16.7425 21.9726 18.0932 21.8396 19.3207 21.3312C20.5481 20.8227 21.5973 19.9617 22.3354 18.8571C23.0735 17.7524 23.4675 16.4536 23.4675 15.125C23.4675 13.7964 23.0735 12.4976 22.3354 11.3929C21.5973 10.2883 20.5481 9.42726 19.3207 8.91883C18.0932 8.41039 16.7425 8.27736 15.4395 8.53656C14.1364 8.79576 12.9395 9.43554 12 10.375L14.375 12.75C14.8447 12.2803 15.4432 11.9604 16.0947 11.8308C16.7463 11.7012 17.4216 11.7677 18.0353 12.0219C18.6491 12.2761 19.1736 12.7066 19.5427 13.259C19.9118 13.8113 20.1088 14.4607 20.1088 15.125C20.1088 15.7893 19.9118 16.4387 19.5427 16.991C19.1736 17.5434 18.6491 17.9739 18.0353 18.2281C17.4216 18.4823 16.7463 18.5488 16.0947 18.4192C15.4432 18.2896 14.8447 17.9697 14.375 17.5L12 19.875Z"/>
</mask>
<path d="M12 19.875C12.9395 20.8145 14.1364 21.4542 15.4395 21.7134C16.7425 21.9726 18.0932 21.8396 19.3207 21.3312C20.5481 20.8227 21.5973 19.9617 22.3354 18.8571C23.0735 17.7524 23.4675 16.4536 23.4675 15.125C23.4675 13.7964 23.0735 12.4976 22.3354 11.3929C21.5973 10.2883 20.5481 9.42726 19.3207 8.91883C18.0932 8.41039 16.7425 8.27736 15.4395 8.53656C14.1364 8.79576 12.9395 9.43554 12 10.375L14.375 12.75C14.8447 12.2803 15.4432 11.9604 16.0947 11.8308C16.7463 11.7012 17.4216 11.7677 18.0353 12.0219C18.6491 12.2761 19.1736 12.7066 19.5427 13.259C19.9118 13.8113 20.1088 14.4607 20.1088 15.125C20.1088 15.7893 19.9118 16.4387 19.5427 16.991C19.1736 17.5434 18.6491 17.9739 18.0353 18.2281C17.4216 18.4823 16.7463 18.5488 16.0947 18.4192C15.4432 18.2896 14.8447 17.9697 14.375 17.5L12 19.875Z" fill="#006DFF" stroke="#006DFF" stroke-width="2" mask="url(#path-5-inside-5_297_3133)"/>
<mask id="path-6-inside-6_297_3133" fill="white">
<path d="M12 5.625C11.0605 4.68554 9.86359 4.04576 8.56052 3.78656C7.25745 3.52736 5.90678 3.66039 4.67932 4.16883C3.45185 4.67726 2.40272 5.53826 1.66459 6.64295C0.926461 7.74764 0.532486 9.0464 0.532486 10.375C0.532486 11.7036 0.926461 13.0024 1.66459 14.1071C2.40272 15.2117 3.45185 16.0727 4.67932 16.5812C5.90678 17.0896 7.25745 17.2226 8.56052 16.9634C9.86359 16.7042 11.0605 16.0645 12 15.125L9.625 12.75C9.15527 13.2197 8.5568 13.5396 7.90526 13.6692C7.25373 13.7988 6.57839 13.7323 5.96466 13.4781C5.35093 13.2239 4.82636 12.7934 4.4573 12.241C4.08823 11.6887 3.89124 11.0393 3.89124 10.375C3.89124 9.7107 4.08823 9.06132 4.4573 8.50897C4.82636 7.95663 5.35093 7.52613 5.96466 7.27191C6.57839 7.0177 7.25373 6.95118 7.90526 7.08078C8.5568 7.21038 9.15527 7.53027 9.625 8L12 5.625Z"/>
</mask>
<path d="M12 5.625C11.0605 4.68554 9.86359 4.04576 8.56052 3.78656C7.25745 3.52736 5.90678 3.66039 4.67932 4.16883C3.45185 4.67726 2.40272 5.53826 1.66459 6.64295C0.926461 7.74764 0.532486 9.0464 0.532486 10.375C0.532486 11.7036 0.926461 13.0024 1.66459 14.1071C2.40272 15.2117 3.45185 16.0727 4.67932 16.5812C5.90678 17.0896 7.25745 17.2226 8.56052 16.9634C9.86359 16.7042 11.0605 16.0645 12 15.125L9.625 12.75C9.15527 13.2197 8.5568 13.5396 7.90526 13.6692C7.25373 13.7988 6.57839 13.7323 5.96466 13.4781C5.35093 13.2239 4.82636 12.7934 4.4573 12.241C4.08823 11.6887 3.89124 11.0393 3.89124 10.375C3.89124 9.7107 4.08823 9.06132 4.4573 8.50897C4.82636 7.95663 5.35093 7.52613 5.96466 7.27191C6.57839 7.0177 7.25373 6.95118 7.90526 7.08078C8.5568 7.21038 9.15527 7.53027 9.625 8L12 5.625Z" fill="#006DFF" stroke="#006DFF" stroke-width="2" mask="url(#path-6-inside-6_297_3133)"/>
</g>
<defs>
<clipPath id="clip0_297_3133">
<rect width="24" height="24" fill="white"/>
</clipPath>
</defs>
</svg>
